# xmcd
#
# Track frame offsets: 
#        150
#        14549
#        26825
#        46007
#        61017
#        74748
#        87989
#        105355
#
# Disc length: 1569 seconds
#
# Revision: 0
# Processed by: cddbd v1.5.2PL0 Copyright (c) Steve Scherf et al.
# Submitted via: ExactAudioCopy v1.3
#
DISCID=61061f08
DTITLE=Brett Kissel - Now or Never
DYEAR=2019
DGENRE=Country
TTITLE0=Drink About Me
TTITLE1=A Few Good Stories
TTITLE2=That's Country Music
TTITLE3=Young Enough
TTITLE4=She Drives Me Crazy
TTITLE5=Hummingbird
TTITLE6=I'm Not Him I'm Not Her
TTITLE7=Coffee with Her
EXTD=
EXTT0=
EXTT1=
EXTT2=
EXTT3=
EXTT4=
EXTT5=
EXTT6=
EXTT7=
PLAYORDER=
